<?xml version="1.0" standalone="no"?>
<!DOCTYPE svg PUBLIC "-//W3C//DTD SVG 20010904//EN"
 "http://www.w3.org/TR/2001/REC-SVG-20010904/DTD/svg10.dtd">
<svg version="1.0" xmlns="http://www.w3.org/2000/svg"
 width="1000.000000pt" height="1000.000000pt" viewBox="0 0 1000.000000 1000.000000"
 preserveAspectRatio="xMidYMid meet">
<metadata>
Created by potrace 1.14, written by Peter Selinger 2001-2017
</metadata>
<g transform="translate(0.000000,1000.000000) scale(0.100000,-0.100000)"
fill="#000000" stroke="none">
<path d="M0 5000 l0 -5000 5000 0 5000 0 0 5000 0 5000 -5000 0 -5000 0 0
-5000z m8210 2267 c371 -66 699 -195 962 -378 10 -7 -112 -280 -128 -286 -6
-2 -49 20 -95 48 -253 158 -583 272 -902 314 -154 20 -422 19 -579 -1 -329
-43 -555 -142 -739 -324 -82 -82 -102 -108 -142 -190 -61 -127 -77 -191 -84
-341 -17 -386 165 -626 607 -798 176 -69 276 -98 690 -200 550 -137 740 -199
972 -317 135 -69 241 -147 334 -246 160 -169 227 -321 255 -575 46 -430 -146
-833 -511 -1073 -227 -149 -460 -227 -795 -266 -179 -21 -614 -15 -775 10
-475 75 -919 272 -1196 530 l-77 71 79 132 c43 73 83 132 88 133 4 0 34 -23
65 -52 237 -218 620 -402 991 -477 155 -31 284 -43 475 -43 210 0 345 13 505
48 516 114 826 460 796 889 -16 234 -92 381 -268 520 -197 156 -414 238 -1059
400 -546 138 -675 178 -895 280 -300 139 -510 357 -592 615 -40 125 -47 180
-47 370 0 195 7 244 53 380 152 456 591 766 1192 839 47 6 101 13 120 15 19 2
152 3 295 1 227 -2 279 -6 405 -28z m-5565 -1981 l1550 -1979 3 1982 2 1981
178 -2 177 -3 0 -2305 0 -2305 -147 -3 -146 -3 -1554 1980 -1553 1979 -3
-1979 -2 -1979 -180 0 -180 0 0 2310 0 2311 152 -3 152 -3 1551 -1979z"/>
</g>
</svg>
