<?xml version="1.0" encoding="UTF-8"?>
<!-- Generated by Pixelmator Pro 3.7.1 -->
<svg width="376" height="138" viewBox="0 0 376 138" xmlns="http://www.w3.org/2000/svg">
    <path id="Path" fill="#63768d" stroke="none" d="M 110.379997 137.990051 C 110.260002 137.880051 110.160004 137.750046 110.029991 137.670044 C 107.459976 136.050049 105.969994 133.660049 105.119987 130.810043 C 104.249992 127.860046 104.05999 124.830048 104.139992 121.780045 C 104.239998 117.970047 104.779991 114.200043 105.359993 110.430023 C 106.969994 99.930023 109.789978 89.710037 112.899979 79.580017 C 115.249992 71.940018 117.639992 64.310013 119.969994 56.660019 C 121.609993 51.260025 123.029991 45.800018 124.269989 40.300018 C 124.48999 39.320015 124.519989 38.290016 124.539993 37.290016 C 124.54998 36.740021 124.329979 36.180016 124.209991 35.570015 C 123.609978 35.730019 123.279999 36.110016 122.919998 36.430016 C 120.059998 38.990021 117.360001 41.720016 114.770012 44.550018 C 106.919998 53.170021 100.44001 62.740021 95.059998 73.080017 C 93.130013 76.800018 91.75 80.710022 90.309998 84.610016 C 85.790001 96.840027 81.150002 109.02002 75.98999 121.000015 C 74.939987 123.440018 73.839996 125.860016 72.769989 128.290009 C 72.499992 128.89003 71.649986 129.02002 71.23999 128.500031 C 71.139977 128.370026 71.149986 128.090027 71.209991 127.910019 C 71.429993 127.260025 71.689987 126.63002 71.929993 125.990021 C 75.819992 115.580017 79.719978 105.160019 83.609978 94.750015 C 84.019981 93.649994 84.379982 92.520004 84.869972 91.450012 C 85.409958 90.27002 85.479973 88.980011 85.869972 87.76001 C 87.389969 82.950012 89.18998 78.250015 91.279968 73.659996 C 92.139969 71.769997 92.759972 69.769997 93.429962 67.799995 C 96.499969 58.87001 99.569962 49.93 102.589958 40.979996 C 104.049973 36.650002 105.429962 32.290001 106.779961 27.919998 C 107.659958 25.089996 108.249962 22.190002 108.509956 19.229996 C 108.73996 16.540001 108.679962 13.860001 107.879959 11.25 C 106.759956 7.569992 104.389954 4.979996 100.939957 3.339996 C 98.719963 2.279999 96.34996 1.710007 93.92997 1.339996 C 88.819969 0.559998 83.709969 0.729996 78.609978 1.460007 C 67.04998 3.100006 55.989979 6.410004 45.459991 11.449997 C 36.569988 15.709999 28.46998 21.129997 21.339991 27.959999 C 15.14999 33.889999 10.01999 40.610001 6.11999 48.25 C 4.38999 51.629997 3.04999 55.149986 2.40999 58.919998 C 1.14999 66.349983 3.06999 72.869995 8.07999 78.479996 C 12.09999 82.979996 17.15999 85.720016 23.029989 87.029999 C 26.77 87.860001 30.569981 88.110001 34.389992 88.009995 C 37.599998 87.929993 40.789982 87.639999 43.96999 87.250015 C 44.409988 87.200012 44.889992 87.300003 45.32999 87.420013 C 45.509979 87.470016 45.609989 87.77002 45.73999 87.960007 C 45.549992 88.080002 45.369991 88.289993 45.169979 88.310013 C 43.649979 88.500015 42.11998 88.700012 40.589981 88.790009 C 38.07999 88.950012 35.549992 89.130005 33.039982 89.110016 C 28.049971 89.080017 23.13999 88.470016 18.43998 86.700027 C 11.95998 84.270035 6.77998 80.240005 3.24998 74.230026 C 1.58998 71.410004 0.56998 68.360016 0.28998 65.080025 C 0.23998 64.490028 0.09998 63.920029 -2e-05 63.330025 L -2e-05 62.670029 C 0.08998 62.080025 0.21998 61.500031 0.25998 60.910042 C 0.55998 57.180038 1.61998 53.660042 3.08998 50.240036 C 5.56998 44.490036 8.88998 39.250038 12.77998 34.360039 C 19.71998 25.630035 28.23999 18.790039 37.919979 13.350037 C 47.97998 7.690033 58.72998 3.860046 69.999977 1.460037 C 73.649971 0.680038 77.319992 0.060043 81.03997 -0.249954 C 86.389977 -0.699966 91.719978 -0.639954 96.969978 0.65004 C 99.559982 1.290039 102.04998 2.200043 104.309982 3.660034 C 107.949982 6.030045 109.999977 9.410034 110.72998 13.65004 C 111.289978 16.880035 111.049988 20.090042 110.469994 23.290039 C 109.72998 27.40004 108.549988 31.390038 107.249992 35.340034 C 104.929977 42.420036 102.57 49.480042 100.219994 56.550026 C 99.969994 57.300026 99.719994 58.050026 99.55999 58.850029 C 99.679993 58.700035 99.80999 58.550026 99.919991 58.390015 C 103.769997 52.570007 108.039993 47.090019 112.819977 42.000015 C 115.129982 39.540016 117.509979 37.160019 120.039978 34.920021 C 120.679977 34.350021 121.359993 33.850021 122.189972 33.590019 C 124.889969 32.750015 127.479958 34.490021 127.849968 37.360016 C 128.079971 39.140015 127.729973 40.850021 127.28997 42.56002 C 125.329964 50.230026 122.939957 57.77002 120.509972 65.300018 C 117.489967 74.650024 114.389969 83.980026 111.809967 93.470016 C 110.149971 99.580017 108.699966 105.730011 107.659981 111.980011 C 107.04998 115.660004 106.499977 119.340012 106.379982 123.070007 C 106.279968 126.090012 106.479988 129.100021 107.43998 132.000031 C 107.839973 133.200027 108.359978 134.350037 109.069977 135.400009 C 109.589981 136.180008 110.199982 136.88002 110.949982 137.450012 C 111.129967 137.590012 111.239967 137.820007 111.389977 138.000015 C 111.03997 137.990021 110.709991 137.990021 110.37999 137.990021 L 110.379959 137.990067 Z M 376.289978 74.660049 C 374.939972 76.200043 373.660004 77.800049 372.219971 79.250046 C 368.549957 82.960052 364.48996 86.230057 360.099976 89.060043 C 358.529968 90.070038 356.879974 90.940048 355.019989 91.310043 C 352.509979 91.810043 350.220001 91.440048 348.339996 89.550064 C 348.299988 89.510071 348.25 89.480057 348.209991 89.460052 C 348.190002 89.450073 348.160004 89.450073 348.059998 89.440063 C 347.900024 89.64006 347.709991 89.870056 347.540009 90.100067 C 345.990021 92.130066 344.290009 94.030045 342.410034 95.760056 C 341.600006 96.500076 340.720032 97.160049 339.690033 97.590057 C 338.570007 98.060059 337.470032 98.130051 336.369995 97.500061 C 335.299988 96.89006 334.910034 95.910065 334.829987 94.760056 C 334.700012 92.800034 334.98999 90.880051 335.400024 88.970062 C 335.750031 87.310059 336.160034 85.660065 336.549988 84.010056 C 336.569977 83.910034 336.589996 83.810043 336.529999 83.670044 C 336.380005 83.890045 336.230011 84.120056 336.079987 84.340057 C 334.640015 86.450043 332.759979 88.000046 330.279999 88.680054 C 327.850006 89.350052 325.670013 88.750061 323.839996 87.000061 C 323.089996 86.28006 322.619995 85.39006 322.470001 84.350067 C 322.450012 84.220078 322.410004 84.090073 322.350006 83.840073 C 322.040009 84.060074 321.779999 84.240067 321.529999 84.420074 C 320.459991 85.180069 319.299988 85.710068 317.950012 85.700073 C 315.970001 85.690094 314.470001 84.850067 313.550018 83.060074 C 313.500031 82.960068 313.450012 82.870087 313.390015 82.770096 C 313.380005 82.750092 313.350006 82.730103 313.280029 82.660095 C 313.150024 82.830093 313.01004 82.980103 312.910034 83.160095 C 311.830048 85.000092 310.77002 86.860092 309.670044 88.690094 C 309.310059 89.300095 308.930054 89.92009 308.470032 90.450073 C 307.52002 91.540085 306.300018 92.020096 304.850037 91.700073 C 303.360046 91.370087 302.52005 90.220078 302.610046 88.700073 C 302.640045 88.240067 302.680054 87.780075 302.730042 87.210068 C 300.930054 88.000061 299.310028 87.670074 297.77005 86.720062 C 296.180054 85.730057 295.470062 84.230057 295.320038 82.220062 C 295.110046 82.54007 295.000031 82.690063 294.910034 82.840057 C 291.820038 87.760056 288.720032 92.670059 285.640045 97.600052 C 285.370056 98.030045 285.050049 98.230057 284.560059 98.180054 C 284.240051 98.14006 283.910065 98.090057 283.590057 98.000061 C 282.870056 97.790054 282.450043 97.340057 282.330048 96.560059 C 281.980042 94.420059 282.120056 92.300064 282.570038 90.190063 C 283.200043 87.29007 284.26004 84.520065 285.320038 81.760071 C 289.460052 70.940056 293.26004 60.000076 296.660034 48.920067 C 297.050049 47.660065 297.470032 46.420067 297.900024 45.180069 C 298.180023 44.360069 298.480011 44.190071 299.320038 44.390068 C 299.630035 44.460068 299.940033 44.620071 300.210052 44.79007 C 300.480072 44.960068 300.590057 45.240067 300.540039 45.58007 C 300.370026 46.630066 300.210052 47.690071 300.050049 48.750069 C 300.03006 48.860069 300.02005 49.010056 299.950043 49.060066 C 299.350037 49.430069 299.370056 50.090065 299.210052 50.640068 C 295.920044 61.750069 292.340057 72.760063 288.210052 83.590073 C 287.240051 86.120071 286.340057 88.680069 285.870056 91.370071 C 285.820068 91.660065 285.79007 91.960068 285.890045 92.330078 C 286.060059 92.110077 286.240051 91.890076 286.400055 91.670074 C 290.730042 85.690079 294.660065 79.460068 298.29007 73.040077 C 298.950073 71.870079 299.53006 70.66008 300.120056 69.460075 C 300.570068 68.560089 301.840057 68.370079 302.480042 69.17009 C 302.640045 69.370087 302.690033 69.730087 302.650055 70.000084 C 302.420044 71.480087 301.740051 72.800087 301.050049 74.120087 C 300.300049 75.550079 299.52005 76.970093 298.850037 78.440094 C 298.220032 79.820099 297.890045 81.290115 297.960022 82.830093 C 298.01001 83.830093 298.230011 84.790115 298.860016 85.600098 C 299.810028 86.810104 301.240021 87.020096 302.420013 86.150101 C 302.790009 85.880096 303 85.550095 303.100006 85.080093 C 303.809998 81.630096 304.990021 78.330093 306.580017 75.190094 C 306.810028 74.730087 307.120026 74.300095 307.360016 73.840073 C 307.700012 73.170074 308.730011 73.300087 309.360016 73.600067 C 309.990021 73.900063 310.120026 74.250061 309.910004 75.03006 C 309.700012 75.830063 309.339996 76.570053 308.800018 77.210052 C 308.620026 77.410049 308.470032 77.650055 308.360016 77.890045 C 306.740021 81.590042 305.800018 85.460052 305.430023 89.470047 C 305.420013 89.550034 305.460022 89.630035 305.490021 89.810043 C 305.700012 89.670044 305.890015 89.580048 306.02002 89.430038 C 306.420013 88.950043 306.840027 88.470032 307.170013 87.940033 C 309.690002 83.89003 312.190002 79.830032 314.690002 75.770035 C 314.820007 75.560013 314.950012 75.350037 315.059998 75.130035 C 315.25 74.760025 315.559998 74.630035 315.950012 74.710037 C 316.190002 74.750015 316.440002 74.810043 316.660004 74.910034 C 317.309998 75.180023 317.399994 75.430023 317.050018 76.040024 C 316.300018 77.350037 315.600006 78.690018 315.320007 80.190018 C 315.119995 81.240021 315.200012 82.27002 315.660004 83.240021 C 316.179993 84.340027 317.029999 84.760025 318.220001 84.490021 C 319.350006 84.230026 320.390015 83.750015 321.399994 83.170013 C 321.72998 82.980011 322.070007 82.800003 322.440002 82.590012 C 322.690002 81.160019 323.220001 79.790009 323.910004 78.470016 C 324.279999 77.759995 324.75 77.119995 325.380005 76.610016 C 326.690002 75.550003 328.589996 75.460022 329.98999 76.399994 C 331.109985 77.149994 331.639984 78.579987 331.25 79.779999 C 331 80.569992 330.450012 81 329.640015 81.100006 C 328.810028 81.200027 328.060028 80.980011 327.410004 80.450027 C 327.179993 80.260025 326.980011 80.020035 326.839996 79.760025 C 326.649994 79.400024 326.459991 78.950027 326.75 78.600021 C 326.890015 78.430023 327.299988 78.420029 327.570007 78.450027 C 328.02002 78.490021 328.420013 78.650024 328.470001 79.230026 C 328.480011 79.400024 328.609985 79.570023 328.73999 79.860031 C 328.919983 79.620026 329.099976 79.490036 329.160004 79.310028 C 329.23999 79.060028 329.269989 78.770035 329.269989 78.500031 C 329.269989 77.930023 329.139984 77.340027 328.619995 77.070038 C 328.089996 76.800034 327.649994 77.250031 327.22998 77.560043 C 327.059967 77.690048 326.899994 77.850037 326.769989 78.030045 C 325.419983 79.900055 324.569977 81.950043 324.619995 84.280045 C 324.649994 85.890045 325.769989 87.240067 327.220001 87.590057 C 328.070007 87.790054 328.860016 87.590057 329.619995 87.250046 C 331.339996 86.480057 332.699982 85.26004 333.809998 83.77005 C 334.269989 83.160049 334.669983 82.500046 335.049988 81.830048 C 336.529999 79.230042 337.98999 76.630051 339.440002 74.02005 C 339.720001 73.520042 339.940002 72.980057 340.130005 72.440048 C 342.390015 66.000046 344.76001 59.610046 347.480011 53.350052 C 348.140015 51.840057 348.860016 50.390038 349.850006 49.050049 C 350.670013 47.930046 351.279999 46.650047 351.990021 45.45005 C 352.160034 45.170052 352.330017 44.880051 352.540009 44.630051 C 352.930023 44.160049 353.430023 44.030045 353.850006 44.250046 C 354.240021 44.45005 354.390015 44.850052 354.179993 45.480049 C 353.779999 46.650047 353.380005 47.810051 352.889984 48.940056 C 351.289978 52.64006 349.689972 56.330055 348.029999 60.000061 C 346.790009 62.720055 345.809998 65.540047 344.809998 68.350067 C 342.790009 74.03006 340.880005 79.740067 339.389984 85.580063 C 338.759979 88.050064 338.179993 90.530075 337.899994 93.070084 C 337.799988 93.990082 337.790009 94.91008 337.889984 95.930084 C 338.149994 95.830063 338.339996 95.800079 338.469971 95.700073 C 339.329956 95.030075 340.249969 94.410095 341.029968 93.650085 C 343.059967 91.650085 345.029968 89.590073 347.099976 87.490082 C 347.039978 87.050079 346.940002 86.490082 346.910004 85.920074 C 346.839966 84.590073 347.059967 83.280075 347.559967 82.060074 C 348.139984 80.610077 348.779968 79.190063 349.509979 77.810074 C 349.869995 77.120071 350.399994 76.470078 350.97998 75.960052 C 352.269989 74.840057 354.439972 75.000046 355.639984 76.210052 C 356.23999 76.810074 356.429993 77.540054 356.149994 78.320053 C 355.639984 79.710052 354.809998 80.890076 353.600006 81.770065 C 352.740021 82.39006 351.76001 82.410065 350.76001 82.220062 C 350.550018 82.180069 350.339996 82.120056 350.059998 82.050064 C 349.309998 83.940063 348.809998 85.810043 349.459991 87.810043 C 349.609985 88.270065 349.859985 88.710037 350.130005 89.110046 C 350.619995 89.830048 351.339996 90.190048 352.220001 90.240051 C 353.140015 90.290054 354.019989 90.090057 354.880005 89.780045 C 356.360016 89.26004 357.730011 88.51004 359.059998 87.680023 C 364.029999 84.530045 368.660004 80.940018 372.910004 76.870026 C 373.679993 76.13002 374.48999 75.430023 375.25 74.680023 C 375.589996 74.350037 375.920013 74.220016 376.329987 74.540024 C 376.289978 74.550018 376.289978 74.600037 376.289978 74.660034 Z M 353.689972 76.52005 C 353.119965 76.560043 352.769958 76.940048 352.509979 77.330048 C 351.949982 78.160049 351.449982 79.030045 350.949982 79.900055 C 350.789978 80.190048 350.449982 80.550049 350.819977 80.850067 C 351.190002 81.15007 351.559967 80.810074 351.829987 80.570053 C 352.680023 79.830048 353.359985 78.930054 353.829987 77.910065 C 354.019989 77.480072 354.089996 77.010071 353.690002 76.520065 Z M 263.099976 41.790047 C 263.309967 41.500046 263.529968 41.180046 263.759979 40.880051 C 268.049988 35.300049 271.329987 29.150047 273.98999 22.660049 C 274.709991 20.900047 275.190002 19.09005 275.119995 17.150047 C 275 14.170052 272.790009 11.310051 269.97998 10.610046 C 268.529968 10.250046 267.089966 10.440048 265.659973 10.760048 C 263.589966 11.230049 261.649963 12.060051 259.719971 12.910049 C 251.749969 16.390053 244.679962 21.220047 238.369965 27.20005 C 233.049957 32.240051 228.429962 37.860046 224.619965 44.130051 C 222.799957 47.120049 221.319977 50.250046 220.539963 53.690048 C 219.749954 57.140045 219.789963 60.540054 221.259964 63.830048 C 222.309967 66.180054 223.959976 68.070053 225.879974 69.740044 C 227.98996 71.590057 230.349976 73.090057 232.699982 74.620056 C 238.559967 78.430054 244.439972 82.210052 250.299988 86.010056 C 252.190002 87.230057 254.029999 88.520035 255.599976 90.150055 C 258.809967 93.500061 259.72998 97.450043 258.709961 101.920044 C 258.069946 104.710037 256.759949 107.200043 255.159973 109.550049 C 252.999985 112.720047 250.319977 115.420044 247.479996 117.980057 C 239.460007 125.220078 230.399994 130.680069 220.129974 134.100067 C 217.209976 135.070068 214.239975 135.830063 211.199997 136.29007 C 210.789993 136.350067 210.339996 136.240067 209.919983 136.130066 C 209.639984 136.050064 209.359985 135.830063 209.399994 135.470062 C 209.429993 135.130066 209.759995 135.110062 210.020004 135.03006 C 212.389999 134.270081 214.789993 133.580063 217.12999 132.740067 C 227.559982 128.980087 236.749985 123.190063 244.87999 115.660065 C 247.319992 113.400085 249.649979 111.050064 251.569992 108.320068 C 253.249985 105.920074 254.62999 103.380066 255.240005 100.490067 C 256.119995 96.28006 255.099991 92.65007 251.800003 89.810059 C 250.539993 88.720062 249.159988 87.760056 247.759995 86.850052 C 241.080002 82.490051 234.36998 78.180054 227.689987 73.830048 C 225.199997 72.210045 222.849976 70.420044 220.839966 68.210045 C 217.019958 64.020042 215.72998 59.120049 216.759979 53.59005 C 217.449982 49.870049 219.049988 46.52005 220.969971 43.300049 C 224.329956 37.670052 228.359985 32.560051 232.969971 27.900047 C 238.499969 22.300049 244.699982 17.600052 251.629974 13.860046 C 255.059967 12.010048 258.569977 10.350052 262.349976 9.300049 C 265.059967 8.540054 267.799988 8.320053 270.549988 9.060043 C 273.139984 9.750046 275.22998 11.170052 276.659973 13.480049 C 277.929962 15.52005 278.019958 17.710052 277.48996 19.980049 C 277.069946 21.780052 276.299957 23.45005 275.499969 25.100052 C 272.679962 30.95005 269.289978 36.440048 265.22998 41.510048 L 264.869995 41.960045 C 264.290009 42.610046 263.72998 42.580048 263.100006 41.790047 L 263.099976 41.790047 Z M 173.809967 86.140045 C 173.929977 86.050034 174.059967 85.980042 174.169952 85.880051 C 176.349945 83.920044 178.539963 81.970047 180.699966 79.990051 C 181.699966 79.070053 183.279953 79.330048 183.819962 80.590057 C 184.589951 82.400055 184.60997 84.160065 183.319962 85.77005 C 183.049973 86.110046 182.679947 86.370056 182.34996 86.650055 C 181.789963 87.120056 181.179947 87.040054 180.579971 86.750061 C 180.09996 86.520065 180.079971 86.340057 180.279984 85.830063 C 180.579971 85.070068 180.839981 84.29007 181.099991 83.520065 C 181.139999 83.400055 181.110001 83.260071 181.110001 83.010071 C 180.590012 83.470078 180.139999 83.850067 179.710007 84.260071 C 178.160019 85.730072 176.63002 87.230072 175.080017 88.690063 C 173.410004 90.250061 172.400024 90.410065 170.280014 89.450043 C 170.150024 89.590057 169.990005 89.730057 169.860016 89.900055 C 167.780014 92.52005 165.710022 95.150055 163.610016 97.740051 C 162.990005 98.500046 162.330017 99.250046 161.580017 99.880051 C 160.380005 100.890045 158.990005 100.950058 157.550003 100.400055 C 156.800003 100.110062 156.420013 99.610062 156.440018 98.77005 C 156.490005 97.090057 156.790024 95.450043 157.230026 93.830048 C 158.040024 90.800049 159.290024 87.940048 160.550034 85.080048 C 163.960037 77.360046 167.530045 69.730034 171.330048 62.20005 C 173.430054 58.040047 175.540024 53.900047 177.690033 49.680046 C 177.670044 49.650047 177.590027 49.550049 177.500031 49.460045 C 177.110016 49.010048 177.110016 48.960045 177.540039 48.52005 C 178.300049 47.740051 179.080048 46.960045 179.820038 46.150047 C 180.150024 45.790047 180.500031 45.620049 180.970032 45.680046 C 181.240021 45.720047 181.52002 45.750046 181.77002 45.84005 C 182.920013 46.220047 183.070007 46.550049 182.52002 47.630051 C 180.76001 51.070045 178.980011 54.490051 177.210022 57.930046 C 173.320007 65.480049 169.630035 73.120049 166.150024 80.870056 C 164.660034 84.190063 163.220032 87.540054 161.830017 90.900055 C 160.880005 93.210052 160.210007 95.610062 159.700012 98.050034 C 159.670013 98.180038 159.660004 98.310028 159.76001 98.540054 C 160.140015 98.170044 160.559998 97.840057 160.910004 97.440033 C 163.179993 94.840027 165.440002 92.230026 167.700012 89.620026 C 167.950012 89.330048 168.190002 89.030029 168.430023 88.730026 C 168.940033 88.120026 169.480011 87.540024 169.610016 86.710037 C 169.650024 86.480026 169.789993 86.250015 169.920013 86.040024 C 171.900024 82.650024 174.080017 79.400024 176.779999 76.530045 C 177.320007 75.950043 177.899994 75.40004 178.480011 74.860046 C 179.150024 74.250046 180.75 74.380035 181.320007 75.070053 C 181.529999 75.320053 181.52002 75.570053 181.330017 75.810059 C 181.01001 76.220062 180.680023 76.620056 180.340027 77.020065 C 178.160034 79.600067 176.090027 82.250076 174.290039 85.110077 C 174.090027 85.420074 173.900024 85.730072 173.710052 86.050064 C 173.730042 86.080063 173.77005 86.110077 173.810059 86.140076 L 173.809998 86.140076 Z M 152.999969 76.470047 C 152.059967 76.450043 151.22998 77.210052 150.429962 76.440033 C 150.47995 76.330048 150.48996 76.250046 150.519958 76.230026 C 151.689972 75.63002 152.849945 75.010025 154.029968 74.460037 C 154.859955 74.070023 155.749969 73.950035 156.679962 74.120026 C 158.709961 74.480026 159.929962 76.030029 159.799957 78.090027 C 159.72995 79.190033 159.349945 80.180023 158.709961 81.050034 C 158.189972 81.750046 157.619965 82.420044 157.039948 83.080048 C 155.509949 84.830048 153.959961 86.570053 152.419952 88.320053 C 152.179962 88.590057 151.939941 88.850052 151.679962 89.090057 C 150.639954 90.050064 149.259949 90.200043 148.039948 89.480057 C 147.22995 89.010056 146.829956 88.190063 146.959961 87.260056 C 147.069946 86.460052 147.399963 85.740051 147.809967 85.050034 C 148.059967 84.630035 148.309967 84.220047 148.469971 83.710037 C 148.359985 83.790039 148.23996 83.860031 148.139984 83.960037 C 145.719986 86.230042 143.319977 88.51004 140.889984 90.770035 C 140.289963 91.330048 139.649963 91.860046 138.97998 92.320038 C 137.289978 93.470032 135.469986 93.65004 133.589981 92.860031 C 131.629974 92.030029 130.829987 90.580032 131.309982 88.500031 C 132.649979 82.780029 135.259979 77.720032 139.389984 73.510017 C 140.259979 72.620018 140.909973 72.520004 141.889984 73.000023 C 142.319977 73.210037 142.549973 73.530029 142.62999 74.010025 C 142.859985 75.480026 142.469986 76.840027 141.889984 78.160004 C 141.689987 78.620026 141.279984 78.690002 140.699982 78.460007 C 140.209976 78.26001 140.139984 78.12001 140.259979 77.590012 C 140.329987 77.280014 140.389984 76.960007 140.349976 76.590012 C 140.209976 76.740005 140.059998 76.880005 139.929977 77.050018 C 137.069977 80.680023 135.189972 84.790024 134.159973 89.280014 C 134.049973 89.770035 134.049973 90.320007 134.149994 90.820007 C 134.309998 91.640015 134.899994 91.990005 135.679993 91.690002 C 136.359985 91.430023 137.059998 91.110016 137.619995 90.650024 C 139.659973 88.990021 141.709991 87.330017 143.639984 85.550003 C 146.689987 82.720016 149.649994 79.790024 152.639984 76.900024 C 152.740005 76.790024 152.819977 76.680023 152.999985 76.470032 Z M 149.309967 88.120026 C 149.359955 88.14003 149.419952 88.170029 149.469971 88.190033 C 149.629974 88.060043 149.809967 87.940033 149.949982 87.800034 C 150.609985 87.140045 151.269989 86.490036 151.899994 85.810028 C 153.320007 84.250031 154.72998 82.690033 156.119995 81.110031 C 156.910004 80.220032 157.519974 79.220032 157.709991 78.010025 C 157.829987 77.200027 157.75 76.420013 157.279999 75.730026 C 156.899994 75.160004 156.48999 75.080032 155.799988 75.420013 C 156.299988 75.760025 156.059998 76.130035 155.839996 76.490036 C 154.070007 79.380035 152.290009 82.270035 150.519989 85.160034 C 150.190002 85.700027 149.869995 86.240036 149.629974 86.820023 C 149.449997 87.220016 149.409973 87.680023 149.309967 88.120026 L 149.309967 88.12001 Z M 206.049957 85.38002 C 203.359955 87.63002 200.719971 89.830017 197.97995 92.120026 C 198.639954 92.430023 199.159943 92.63002 199.649963 92.910019 C 200.279953 93.280014 200.939972 93.650024 201.47995 94.13002 C 202.159943 94.730026 202.23996 95.500015 201.809937 96.300018 C 201.599945 96.680023 201.329926 97.040024 201.039948 97.360016 C 198.399933 100.210037 195.379944 102.540009 191.749939 103.990021 C 190.529938 104.470016 189.259949 104.830017 187.989929 105.13002 C 187.45993 105.250015 186.829926 105.160019 186.299927 105.000015 C 185.249939 104.680008 184.809937 103.710037 185.289917 102.700027 C 185.609924 102.020035 186.069916 101.360016 186.589905 100.830017 C 188.339905 99.060013 190.139893 97.330017 191.949905 95.610016 C 192.899918 94.700027 193.899918 93.850037 194.989914 92.87001 C 194.629913 92.750015 194.359909 92.660004 194.07991 92.580017 C 192.519913 92.13002 191.019913 91.550018 189.669907 90.62001 C 188.529907 89.830017 187.559921 88.87001 186.879898 87.640015 C 185.809891 85.710022 185.709885 83.740021 186.959885 81.88002 C 188.279907 79.930023 189.689896 78.040024 191.129898 76.180023 C 191.569901 75.610016 192.199905 75.14003 192.82991 74.790024 C 194.419907 73.900017 196.549911 74.310013 197.719925 75.64003 C 198.279922 76.280029 198.529922 77.000031 198.209915 77.840027 C 197.989914 78.410034 197.629913 78.570023 196.949905 78.410034 C 196.349884 78.270035 196.209915 78.090027 196.259903 77.440033 C 196.309891 76.880035 196.149918 76.420044 195.629898 76.000046 C 195.399887 76.120041 195.109909 76.220047 194.899887 76.410034 C 194.469894 76.790039 194.039902 77.180038 193.689896 77.630035 C 192.669907 78.950043 191.679886 80.300034 190.699905 81.660034 C 190.349899 82.150055 190.029907 82.670029 189.769913 83.210037 C 188.749924 85.290039 189.109924 87.280045 190.749924 88.930038 C 191.699936 89.890045 192.889938 90.450043 194.129929 90.910034 C 194.669937 91.110046 195.239914 91.220047 195.769943 91.450027 C 196.309952 91.690033 196.669937 91.490021 197.09993 91.170029 C 199.689926 89.230026 202.299942 87.320023 204.899918 85.410034 C 205.229904 85.170029 205.57991 84.920029 206.049911 85.380035 L 206.049973 85.38002 Z M 187.119965 103.950027 C 187.369965 103.910034 187.529968 103.89003 187.679977 103.850021 C 191.899963 102.690018 195.409973 100.430023 198.209976 97.070023 C 198.579971 96.63002 198.959976 96.190018 199.269974 95.710022 C 199.699966 95.030029 199.579971 94.610016 198.86998 94.250015 C 198.37999 94.000015 197.85997 93.830017 197.36998 93.600021 C 196.919968 93.38002 196.589981 93.440018 196.219986 93.820023 C 194.189987 95.850021 192.11998 97.850021 190.089996 99.88002 C 189.309998 100.650024 188.570007 101.460022 187.850006 102.280014 C 187.429993 102.710007 187.059998 103.190002 187.119995 103.950012 L 187.119995 103.950027 Z M 130.439987 71.420029 C 130.329987 71.950027 130.169983 72.840027 129.949966 73.710014 C 128.519974 79.510025 126.93998 85.260025 124.669968 90.790024 C 124.089973 92.200027 123.299973 93.530029 122.569962 94.870026 C 122.289963 95.390015 122.009956 95.460022 121.479958 95.330032 C 120.869957 95.180038 120.629951 94.90004 120.729958 94.270035 C 120.939972 92.980042 121.119957 91.660034 121.479958 90.410034 C 122.579971 86.540024 123.769951 82.700027 124.91996 78.840042 C 125.619957 76.480042 126.289963 74.110046 126.999962 71.750038 C 127.16996 71.180023 127.41996 70.620033 127.649948 70.070045 C 127.839951 69.610039 128.219955 69.420059 128.709946 69.470039 C 128.929947 69.490036 129.149948 69.510025 129.35994 69.570045 C 130.209946 69.810059 130.46994 70.180046 130.439941 71.420059 L 130.439957 71.420029 Z M 276.369965 77.560028 C 276.419952 77.500031 276.469971 77.430023 276.539978 77.39003 C 277.499969 76.860031 277.849976 76.260025 277.679993 75.190033 C 277.600006 74.690033 277.429993 74.180038 277.190002 73.730019 C 276.799988 73.010017 276.179993 72.780014 275.380005 72.930016 C 274.52002 73.100014 273.800018 73.530029 273.119995 74.050018 C 271.959991 74.940018 270.98999 76.02002 270.139984 77.210022 C 268.449982 79.570023 267.23999 82.170029 266.48999 84.970016 C 266.389984 85.340012 266.349976 85.729996 266.349976 86.110016 C 266.329987 87.560013 267.269989 88.680023 268.679962 88.990005 C 269.559967 89.180008 270.419952 89.070007 271.289948 88.889999 C 272.559937 88.630005 273.759949 88.169998 274.879974 87.520004 C 276.299957 86.699997 277.699982 85.830002 279.109955 84.980011 C 279.73996 84.600006 279.949982 84.640015 280.559967 85.190018 C 280.48996 85.290024 280.429993 85.420013 280.339966 85.510025 C 278.569977 87.210037 276.660004 88.720047 274.369995 89.650024 C 272.249969 90.520035 270.089966 90.760025 267.859955 90.120026 C 266.929993 89.850037 266.079956 89.410019 265.349945 88.77002 C 264.139984 87.700012 263.639984 86.360016 264.009949 84.780014 C 264.47995 82.77002 265.349945 80.900009 266.359955 79.110016 C 267.429993 77.210022 268.719971 75.480011 270.349945 74.020004 C 271.419983 73.059998 272.609955 72.290009 274.039948 71.970009 C 274.939941 71.770004 275.839935 71.800003 276.71994 72.060005 C 278.579926 72.610008 279.649933 74.51001 279.149933 76.400009 C 278.909943 77.300003 278.359924 77.900009 277.429932 78.080002 C 276.889923 78.169998 276.669922 78.050003 276.369934 77.559998 L 276.369965 77.560013 Z M 137.439987 50.710014 C 137.649994 50.730019 137.809982 50.710014 137.919983 50.77002 C 138.169983 50.910019 138.519989 51.030006 138.61998 51.250015 C 138.779984 51.600029 138.379974 51.750015 138.139984 51.900009 C 136.319977 53.049995 134.349991 53.87001 132.349991 54.62001 C 131.689987 54.87001 131.049988 54.670006 130.459991 54.340012 C 130.169998 54.180008 129.859985 53.930008 129.969986 53.570007 C 130.029984 53.360001 130.309982 53.170021 130.529984 53.070007 C 132.429977 52.200005 134.36998 51.460007 136.37999 50.910011 C 136.749985 50.830009 137.12999 50.780006 137.439987 50.710007 L 137.439987 50.71003 Z"/>
</svg>
