<svg xmlns="http://www.w3.org/2000/svg" viewBox="0 0 376.33 138.5042">
  <path d="M110.38 138.49425c-.12-.11-.22-.24001-.35001-.32001-2.57001-1.62-4.06-4.00999-4.91-6.86-.87-2.95-1.06-5.98-.98-9.03.10001-3.81.64-7.58 1.22-11.35001 1.61-10.5 4.42999-20.72 7.53999-30.85001 2.35001-7.64 4.74001-15.27 7.07001-22.92 1.64-5.39999 3.06-10.86 4.3-16.36.22-.98.25-2.01.27-3.01.00999-.55-.21001-1.11-.33-1.72-.60001.16-.92999.54-1.28999.86-2.86 2.56-5.56 5.29-8.14999 8.12-7.85001 8.62-14.33 18.19-19.71001 28.53-1.92999 3.72-3.31 7.63-4.75 11.53-4.52 12.23-9.16 24.41-14.32001 36.39-1.05 2.44-2.14999 4.86-3.22 7.28999-.27.60001-1.12.73-1.53.21001-.10001-.13-.09-.41-.03-.59.22-.64999.48-1.28.72-1.92 3.89-10.41 7.78999-20.83 11.67999-31.24001.41-1.10001.77-2.23 1.25999-3.3.53999-1.17999.61-2.47 1-3.69 1.52-4.81 3.32001-9.50999 5.41-14.10001.86-1.89 1.48-3.89 2.14999-5.86 3.07001-8.92999 6.14-17.87 9.16-26.82 1.46001-4.33 2.84-8.69 4.19-13.06.88-2.83 1.47-5.73 1.73-8.69.23-2.69.17-5.37-.63-7.98-1.12-3.68-3.49001-6.27-6.94-7.91-2.22-1.06-4.59-1.63-7.00999-2-5.11-.78-10.22-.61-15.31999.12-11.56 1.64-22.62 4.95-33.14999 9.99-8.89 4.26-16.99001 9.68-24.12 16.51-6.19 5.93-11.32 12.65-15.22 20.29-1.73 3.38-3.07 6.89999-3.71 10.67-1.26 7.42999.66 13.95 5.67 19.56 4.02 4.5 9.08 7.24001 14.95 8.55 3.74001.83 7.53999 1.08 11.36.98 3.21001-.08 6.39999-.37 9.58-.75999.44-.05.92.05 1.36.17.17999.05.28.35001.41.53999-.19.12-.37.33-.57001.35001-1.52.19-3.05.39-4.58.48-2.50999.16-5.03999.34-7.55.32001-4.99001-.03-9.89999-.64-14.6-2.41-6.48-2.42999-11.66-6.46001-15.19-12.47-1.66-2.82001-2.68-5.87-2.96-9.14999-.05-.59-.19-1.16-.29-1.75v-.66c.09-.59.22-1.17.26-1.75999.3-3.73 1.36-7.25 2.83-10.67 2.48-5.75 5.8-10.99 9.69-15.88 6.94-8.73 15.46001-15.57 25.14-21.01 10.06-5.66 20.81-9.49 32.08-11.89 3.64999-.78 7.32001-1.4 11.03999-1.71 5.35001-.45 10.68001-.39 15.93001.9 2.59.64 5.08 1.55 7.34 3.01 3.64 2.37 5.69 5.75 6.42 9.99.56 3.23.32001 6.44-.25999 9.64-.74001 4.11-1.92 8.1-3.22 12.05-2.32001 7.08-4.67999 14.14-7.03 21.20999-.25.75-.5 1.5-.66 2.3.12-.14999.25-.3.36-.46001 3.85001-5.82001 8.12-11.3 12.89999-16.39 2.31-2.46 4.69-4.84 7.22-7.08.64-.57 1.32001-1.07 2.14999-1.33 2.7-.84 5.28999.9 5.66 3.77.23 1.78-.12 3.49-.56 5.2-1.96001 7.67001-4.35001 15.21-6.78 22.74-3.02 9.35001-6.12 18.68001-8.7 28.17-1.66 6.11-3.11 12.25999-4.14999 18.50999-.61 3.67999-1.16 7.36-1.28 11.09-.10001 3.02.10001 6.03 1.06 8.93001.39999 1.2.92 2.35001 1.63 3.39999.52.78 1.13 1.48 1.88 2.05.17999.14.28999.37.44.55-.35001-.00999-.67999-.00999-1.00999-.00999l-.00003.00005Zm265.90999-63.33c-1.35001 1.53999-2.63 3.14-4.07001 4.59-3.67001 3.71001-7.73001 6.98-12.12 9.81-1.57001 1.00999-3.22 1.88-5.07999 2.25-2.51001.5-4.79999.13-6.67999-1.75999-.04001-.03999-.09-.07001-.13-.09-.01999-.00999-.04999-.00999-.14999-.02-.16.2-.35001.42999-.51999.66-1.54999 2.03-3.25 3.92999-5.13 5.66-.81.74001-1.69 1.39999-2.72 1.83-1.12.47-2.22.53999-3.32001-.09-1.07001-.61-1.45999-1.59-1.54001-2.74001-.13-1.96001.16-3.88.57001-5.78999.35001-1.66.76001-3.31 1.14999-4.96001.01999-.10001.04001-.2-.01999-.34-.14999.22-.29999.45-.45001.67-1.44 2.11-3.32001 3.66-5.79999 4.34-2.42999.67-4.60999.07001-6.44-1.67999-.75-.72-1.22-1.61-1.37-2.64999-.01999-.13-.06-.25999-.12-.50999-.31.22-.57001.39999-.82001.58-1.07001.75999-2.23001 1.28999-3.57999 1.28-1.98001-.00999-3.48001-.85001-4.39999-2.64-.04999-.10001-.10001-.19-.16-.28999-.01001-.02-.04001-.03999-.10999-.11-.13.17-.26999.32001-.37.5-1.07999 1.84-2.14001 3.7-3.23999 5.53-.35999.61-.73999 1.23-1.20001 1.75999-.95001 1.09-2.17001 1.57001-3.62 1.25-1.48999-.33-2.32999-1.48-2.23999-3 .03-.46001.07001-.92.12-1.49001-1.79999.78999-3.42001.46001-4.95999-.49001-1.59-.99001-2.29999-2.49001-2.45001-4.5-.20999.32001-.32001.47-.41.62-3.09 4.92-6.19 9.83-9.26999 14.75999-.26999.42999-.59.63-1.07999.58-.32001-.03999-.64999-.09-.97-.17999-.72-.21001-1.14001-.66-1.26001-1.44-.35001-2.14-.20999-4.25999.23999-6.37.63-2.89999 1.69-5.67 2.75-8.42999 4.14001-10.82001 7.94-21.75999 11.34-32.84.39001-1.26.81-2.5 1.23999-3.74.28-.82.57999-.99 1.42001-.79.31.07.62.23.89001.4s.38.45.32999.79c-.17001 1.05-.32999 2.11-.48999 3.17-.01999.11-.03.25999-.10001.31-.60001.37-.57999 1.03-.73999 1.58-3.29001 11.11-6.87 22.12-11 32.95-.97 2.53-1.87 5.09-2.34 7.78-.04999.28999-.07999.59.01999.96001.17001-.22.35001-.44.51001-.66 4.32999-5.98 8.26001-12.21001 11.89001-18.63.66-1.17 1.23999-2.38 1.82999-3.58.45001-.89999 1.72-1.09 2.35999-.28999.16.2.20999.56.17001.83-.23001 1.48-.91 2.8-1.60001 4.12-.75 1.42999-1.53 2.85001-2.20001 4.32001-.63 1.38-.95999 2.85001-.89001 4.39.04999 1 .26999 1.96001.89999 2.77.95001 1.21001 2.38 1.42 3.56.55.37-.27.57999-.60001.67999-1.07001.70999-3.45 1.89001-6.75 3.48001-9.89.23001-.46001.54001-.89.78-1.35001.34-.67 1.37-.53999 2-.24001.63.3.76001.64999.54999 1.42999-.20999.8-.57001 1.53999-1.10999 2.17999-.17999.2-.32999.44-.44.67999-1.62 3.7-2.56 7.57001-2.92999 11.58-.01001.08.03.16.06.34.20999-.14.39999-.23.53-.38.39999-.48.82001-.96001 1.14999-1.49001 2.51999-4.05 5.01999-8.11 7.51999-12.17.13-.21001.26001-.42.37-.64.19-.37.5-.5.89001-.42.23999.03999.48999.10001.70999.2.64999.27.73999.52.39001 1.13-.75 1.31-1.45001 2.64999-1.73001 4.14999-.20001 1.05-.12 2.08.34 3.05.51999 1.10001 1.37 1.52 2.56 1.25 1.13-.25999 2.17001-.74001 3.17999-1.32001.32999-.19.67001-.37 1.04001-.58.25-1.42999.78-2.8 1.47-4.12.37-.71001.84-1.35001 1.47-1.86 1.31-1.06 3.20999-1.14999 4.60999-.21001 1.12.75 1.64999 2.17999 1.26001 3.38-.25.78999-.79999 1.22-1.60999 1.32001-.82999.10001-1.57999-.12-2.23001-.64999-.23001-.19-.42999-.42999-.57001-.69-.19-.36-.38-.81-.09-1.16.14001-.17.54999-.17999.82001-.14999.45001.03999.85001.2.89999.78.01001.17.14001.34.26999.63.17999-.24001.35999-.37.42001-.55.07999-.25.10999-.53999.10999-.81 0-.57001-.13-1.16-.64999-1.42999-.53-.27-.97.17999-1.39001.49001-.17001.13-.32999.28999-.45999.47-1.35001 1.87-2.20001 3.92-2.14999 6.25.03 1.61 1.14999 2.96001 2.60001 3.31.85001.2 1.64001 0 2.39999-.34 1.72-.77 3.07999-1.99001 4.19-3.48.45999-.61.85999-1.27 1.23999-1.94 1.48001-2.60001 2.94-5.2 4.39001-7.81.28-.5.5-1.03999.69-1.58 2.26001-6.44 4.63-12.83 7.35001-19.09.66-1.50999 1.38-2.96001 2.37-4.3.82001-1.12 1.42999-2.4 2.14001-3.6.17001-.28.34-.57.54999-.82.39001-.47.89001-.6 1.31-.38.39001.2.54001.6.32999 1.23-.39999 1.17-.79999 2.33-1.29001 3.46001-1.60001 3.7-3.20001 7.39-4.85999 11.06-1.23999 2.72-2.22 5.53999-3.22 8.35001-2.01999 5.67999-3.92999 11.39-5.42001 17.23-.63 2.47-1.20999 4.95-1.48999 7.49001-.10001.92-.10999 1.84-.01001 2.86.26001-.10001.45001-.13.57999-.23.85999-.67 1.78-1.28999 2.56-2.05 2.03-2 4-4.06 6.07001-6.16-.06-.44-.16-1-.19-1.57001-.07001-1.33.14999-2.64.64999-3.86.57999-1.45 1.22-2.87 1.95001-4.25.35999-.69.89001-1.34 1.47-1.85001 1.29001-1.12 3.45999-.96001 4.66.25.60001.60001.79001 1.33.51001 2.11-.51001 1.39-1.34 2.57001-2.54999 3.45-.85999.62-1.84.64-2.84.45-.20999-.03999-.42001-.10001-.70001-.17-.75 1.89-1.25 3.75999-.60001 5.75999.14999.46001.39999.89999.67001 1.3.48999.72 1.20999 1.08 2.09 1.13.92001.05 1.79999-.14999 2.66-.46001 1.48001-.52 2.85001-1.27 4.17999-2.10001 4.97-3.14999 9.60001-6.74001 13.85001-10.81.76999-.74001 1.57999-1.44 2.34-2.19.34-.33.67001-.46001 1.07999-.14-.04001.00999-.04001.06-.04001.12Zm-22.60001 1.86c-.57001.03999-.92001.42-1.17999.81-.56.83-1.06 1.7-1.56 2.57001-.16.28999-.5.64999-.13.95s.73999-.03999 1.01001-.28c.85001-.74001 1.53-1.64 2-2.66.19-.42999.26001-.89999-.14001-1.39Zm-90.59-34.73c.20999-.29.42999-.61.66-.91 4.29001-5.58 7.57001-11.73 10.23001-18.22.72-1.76 1.20001-3.57 1.13-5.51-.12-2.98-2.32999-5.84-5.14001-6.54-1.45001-.36-2.89001-.17-4.32001.15-2.07001.47-4.01001 1.3-5.94 2.15-7.97 3.48-15.04001 8.31-21.35001 14.29-5.32001 5.04-9.94 10.66-13.75 16.93-1.82001 2.99-3.29999 6.12-4.07999 9.56-.79001 3.45-.75 6.85001.72 10.14 1.04999 2.35001 2.70001 4.24001 4.62 5.91 2.10999 1.85001 4.47 3.35001 6.82001 4.88 5.85999 3.81 11.73999 7.59 17.60001 11.39 1.89001 1.22 3.73001 2.50999 5.29999 4.14 3.20999 3.35001 4.13 7.3 3.10999 11.77-.64001 2.78999-1.95001 5.28-3.54999 7.63-2.16 3.17-4.84 5.87-7.67999 8.43001-8.01999 7.24001-17.07999 12.7-27.35001 16.12-2.92001.97-5.89001 1.73-8.92999 2.19-.41.06-.85999-.05-1.28-.16-.28-.08-.56-.3-.51999-.66.03-.34.35999-.36.62-.44 2.37-.75999 4.76999-1.45 7.10999-2.28999 10.42999-3.75999 19.62-9.55 27.75-17.08 2.44-2.25999 4.76999-4.61 6.69-7.34 1.67999-2.39999 3.06-4.94 3.67001-7.83.88-4.21001-.14001-7.84-3.44-10.68001-1.26001-1.09-2.64001-2.05-4.04001-2.96001-6.67999-4.36-13.39001-8.67-20.07001-13.02-2.48999-1.62-4.84-3.41-6.85001-5.62-3.82001-4.19-5.10999-9.09-4.07999-14.62.69-3.72 2.29001-7.07 4.20999-10.29 3.35999-5.63 7.39001-10.74 12-15.4 5.53-5.6 11.73001-10.3 18.66-14.04 3.42999-1.85 6.94-3.51 10.72-4.56 2.70999-.76 5.45001-.98 8.20001-.24 2.59.69 4.67999 2.11 6.10999 4.42 1.26999 2.04 1.35999 4.23.82999 6.5-.42001 1.8-1.19 3.47-1.98999 5.12-2.82001 5.85-6.20999 11.34-10.26999 16.41l-.35999.45c-.57999.65-1.14001.62-1.76999-.17h-.00003Zm-89.29001 44.34999c.12-.09.25-.16.35999-.25999 2.17999-1.96001 4.37-3.91 6.53-5.89 1-.92 2.57999-.66 3.12.60001.76999 1.81.79001 3.57001-.5 5.17999-.26999.34-.64001.60001-.97.88-.56.47-1.17001.39-1.76999.10001-.48001-.23-.5-.41-.29999-.92.29999-.75999.56-1.53999.82001-2.31.04001-.12.01001-.25999.01001-.50999-.51999.46001-.97.84-1.39999 1.25-1.54999 1.47-3.07999 2.97-4.63 4.42999-1.67001 1.56-2.67999 1.72-4.79999.75999-.13.14-.29001.28-.42001.45-2.07999 2.62-4.14999 5.25-6.25 7.84-.62.75999-1.28 1.50999-2.03 2.14-1.20001 1.00999-2.59 1.07001-4.03.52-.75-.28999-1.13-.78999-1.10999-1.63.04999-1.67999.35001-3.32001.79001-4.94.81-3.03 2.06-5.89 3.32001-8.75 3.41-7.72 6.98001-15.35001 10.78-22.88 2.10001-4.16 4.20999-8.3 6.35999-12.52-.01999-.03-.10001-.13-.19-.22-.39001-.45-.39001-.5.04001-.94.76001-.78 1.54001-1.56 2.28-2.37.32999-.36.67999-.53 1.14999-.47.26999.04.54999.07.79999.16 1.14999.38 1.29999.71.75 1.79-1.76001 3.44-3.54001 6.86-5.31 10.3-3.89001 7.55-7.57999 15.19-11.06 22.94-1.48999 3.32001-2.92999 6.67-4.32001 10.03-.95001 2.31-1.62 4.71001-2.13 7.14999-.03.13-.04001.25999.06.49001.38-.37.79999-.7 1.14999-1.10001 2.26999-2.60001 4.53-5.21001 6.79001-7.82001.25-.28999.48999-.59.73001-.89.51001-.61 1.04999-1.19 1.17999-2.02.04001-.23.17999-.46001.31-.67 1.98001-3.39 4.16-6.64 6.85999-9.50999.54001-.58 1.12-1.13 1.70001-1.67.67001-.61 2.26999-.48 2.84.21001.20999.25.20001.5.01001.74001-.32001.41-.64999.81-.98999 1.21001-2.17999 2.58-4.25 5.23-6.04999 8.09-.20001.31-.39001.62-.57999.94.01999.03.06.06.10001.09H173.81Zm-20.81-9.67c-.94-.02-1.76999.74001-2.57001-.03.04999-.11.06-.19.09-.21001 1.17001-.60001 2.32999-1.22 3.51001-1.77.82999-.39 1.72-.50999 2.64999-.34 2.03.36 3.25 1.91 3.12 3.97-.07001 1.10001-.45001 2.09-1.09 2.96001-.51999.7-1.09 1.37-1.67001 2.03-1.53 1.75-3.07999 3.49001-4.62 5.24001-.23999.27-.48001.53-.73999.77-1.04001.96001-2.42001 1.11-3.64001.39-.81-.47-1.20999-1.28999-1.07999-2.22.10999-.8.44-1.52.85001-2.21001.25-.42.5-.83.66-1.34-.10999.08-.23001.14999-.32999.25-2.42 2.27-4.82001 4.55-7.25 6.81-.60001.56-1.24001 1.09-1.91 1.55-1.69 1.14999-3.50999 1.33-5.39.53999-1.96001-.83-2.75999-2.28-2.28-4.36 1.34-5.72 3.95-10.78 8.08-14.99001.87-.89 1.52-.99001 2.5-.50999.42999.21001.66.53.74001 1.00999.23 1.47-.16 2.83-.74001 4.14999-.2.46001-.61.53-1.19.3-.49001-.2-.56-.34-.44-.87.07001-.31.13-.63.09-1-.14.14999-.28999.28999-.42.46001-2.86 3.63-4.74001 7.74001-5.77 12.23-.11.49001-.11 1.03999-.00999 1.53999.16.82001.75 1.17 1.53.87.67999-.25999 1.38-.58 1.94-1.03999 2.03999-1.66 4.09-3.32001 6.02-5.10001 3.04999-2.83 6.01001-5.75999 9-8.64999.10001-.11.17999-.22.35999-.42999Zm-3.69 11.64999c.04999.02.10999.05.16.07001.16-.13.34-.25.48001-.39.66-.66 1.32001-1.31 1.95001-1.99001 1.42001-1.56 2.82999-3.12 4.22-4.7.79001-.89 1.39999-1.89 1.59-3.10001.12-.81.04001-1.59-.42999-2.28-.38-.57001-.79001-.64999-1.48001-.31.5.34.26001.71001.04001 1.07001-1.76999 2.89-3.54999 5.78-5.32001 8.67-.32999.53999-.64999 1.08-.89001 1.66-.17999.39999-.22.86-.32001 1.3v-.00002Zm56.73999-2.74001c-2.69 2.25-5.32999 4.45-8.07001 6.74001.66.31 1.17999.50999 1.67001.78999.63.37 1.29001.74001 1.82999 1.22.67999.60001.76001 1.37.32999 2.17-.20999.38-.48001.74001-.76999 1.06-2.64001 2.85001-5.66 5.17999-9.29001 6.63-1.22.48-2.48999.84-3.76001 1.14-.53.12-1.16.03-1.69-.13-1.04999-.32001-1.48999-1.28999-1.01001-2.3.32001-.67999.78-1.34 1.29999-1.87 1.75-1.77 3.54999-3.5 5.35999-5.22.95001-.91 1.95001-1.75999 3.04001-2.74001-.35999-.12-.63-.21001-.91-.28999-1.56-.45-3.06-1.03-4.41-1.96001-1.14001-.78999-2.10999-1.75-2.79001-2.98-1.07001-1.92999-1.17001-3.89999.07999-5.75999 1.32001-1.95 2.73001-3.84 4.17001-5.7.44-.57001 1.07001-1.03999 1.70001-1.39 1.59-.89 3.72-.48 4.89001.85001.56.64.81 1.36.48999 2.2-.22.57001-.57999.73-1.26001.57001-.60001-.14-.73999-.32001-.69-.97.04999-.56-.10999-1.02-.63-1.44-.23001.12-.51999.22-.73001.41-.42999.38-.85999.77-1.20999 1.22-1.01999 1.32001-2.01001 2.67-2.98999 4.03-.35001.49001-.67001 1.00999-.92999 1.55-1.01999 2.08-.66 4.07001.98001 5.72.95001.96001 2.14001 1.52 3.38 1.98.54001.2 1.10999.31 1.64001.53999.54001.24001.89999.03999 1.32999-.28 2.59-1.94 5.20001-3.85001 7.79999-5.75999.32999-.24001.67999-.49001 1.14999-.03l.00006-.00002Zm-18.92999 18.57001c.25-.03999.41-.06.56-.10001 4.22-1.16 7.73001-3.42 10.53-6.78.37-.44.75-.88 1.06-1.36.42999-.67999.31-1.10001-.39999-1.46001-.48999-.25-1.01001-.42-1.5-.64999-.45001-.22-.78-.16-1.14999.22-2.03 2.03-4.10001 4.03-6.13 6.06-.78.77-1.51999 1.58-2.23999 2.39999-.42001.42999-.79001.91-.73001 1.67v.00002Zm-56.67999-32.53c-.11.53-.27 1.42-.49001 2.28999-1.42999 5.8-3.00999 11.55-5.28 17.08-.58 1.41-1.37 2.74001-2.10001 4.08-.28.52-.56.59-1.09.46001-.61-.14999-.85001-.42999-.75-1.06.21001-1.28999.39-2.61.75-3.86 1.10001-3.87 2.28999-7.71001 3.44-11.56999.7-2.36 1.37-4.73 2.08-7.09.17-.57001.42-1.13.64999-1.67999.19-.46001.57001-.64999 1.06-.60001.22.02.44.03999.64999.10001.85001.24001 1.11.61 1.08 1.85001l.00002-.00003Zm145.92999 6.14c.04999-.06.10001-.13.17001-.17.95999-.53 1.31-1.13 1.14001-2.2-.07999-.5-.25-1.00999-.48999-1.46001-.39001-.72-1.01001-.95-1.81-.8-.85999.17-1.57999.60001-2.26001 1.12-1.16.89-2.13 1.97-2.98001 3.16-1.69 2.36-2.89999 4.96001-3.64999 7.75999-.10001.37-.14001.75999-.14001 1.14-.01999 1.45.92001 2.57001 2.32999 2.88.88.19 1.73999.08 2.60999-.10001 1.26999-.25999 2.47-.72 3.59-1.37 1.42001-.82001 2.82001-1.69 4.23001-2.53999.63-.38.84-.34 1.45001.21001-.07001.10001-.13.23-.22.32001-1.76999 1.7-3.67999 3.21001-5.97 4.14-2.12.87-4.28 1.11-6.51001.47-.92999-.27-1.78-.71001-2.51001-1.35001-1.20999-1.07001-1.70999-2.41-1.34-3.99001.47-2.00999 1.34-3.88 2.35001-5.67 1.07001-1.89999 2.35999-3.63 3.98999-5.09 1.07001-.96001 2.26001-1.73 3.69-2.05.89999-.2 1.79999-.17 2.67999.09 1.85999.55 2.92999 2.45 2.42999 4.34-.23999.89999-.79001 1.5-1.72 1.67999-.54001.09-.76001-.03-1.06-.52l.00003.00002ZM137.43998 51.21422c.21001.02.37 0 .48.06.25.14.60001.25999.7.48.16.35001-.24001.5-.48.64999-1.82001 1.14999-3.78999 1.97-5.78999 2.72-.66.25-1.3.05-1.89-.28-.28999-.16-.60001-.41-.49001-.77.06-.21001.34-.39999.56-.5 1.89999-.87 3.84-1.61 5.85001-2.16.37-.08.75-.13 1.06-.2v.00002Z" style="fill:#fff"/>
</svg>
