<?xml version="1.0" encoding="UTF-8"?>
<svg width="510px" height="449px" viewBox="0 0 510 449" version="1.1" xmlns="http://www.w3.org/2000/svg" xmlns:xlink="http://www.w3.org/1999/xlink">
    <title>icon-bluesky</title>
    <g id="Page-1" stroke="none" stroke-width="1" fill="none" fill-rule="evenodd">
        <g id="icon-bluesky" transform="translate(0.5, 0.9692)" fill="#FFFFFF" fill-rule="nonzero">
            <path d="M110.3,30.2307732 C168.7,73.9307732 231.5,162.730773 254.5,210.430773 C277.5,162.830773 340.3,74.0307732 398.7,30.2307732 C440.8,-1.36922681 509,-25.7692268 509,52.0307732 C509,67.5307732 500.1,182.530773 494.9,201.230773 C476.7,266.030773 410.5,282.630773 351.6,272.530773 C454.5,290.030773 480.7,348.030773 424.1,406.030773 C316.7,516.230773 269.8,378.430773 257.8,343.130773 C256.1,338.230773 255.2,335.330773 254.5,335.330773 C253.8,335.330773 252.9,338.330773 251.2,343.130773 C239.2,378.430773 192.2,516.230773 84.9,406.030773 C28.4,348.030773 54.5,290.030773 157.4,272.530773 C98.5,282.630773 32.3,266.030773 14.2,201.130773 C8.9,182.430773 0,67.4307732 0,51.9307732 C0,-25.8692268 68.2,-1.46922681 110.3,30.1307732 L110.3,30.2307732 Z" id="Path"></path>
        </g>
    </g>
</svg>